<svg width="125" height="49" viewBox="0 0 125 49" fill="none" xmlns="http://www.w3.org/2000/svg">
  <style>
    .color {
      fill: #F1F1F1;
    }
    @media (prefers-color-scheme: dark) {
      .color {
        fill: #1D1D1D;
      }
    }
  </style>

<path d="M78.114 19.4846C76.9246 19.4846 75.4554 20.4641 74.7208 21.6185V19.6945H72.517V31.0634H74.7208V23.5424C75.3505 22.3881 76.9596 21.7584 78.4988 21.7584V19.5546C78.3588 19.4846 78.1839 19.4846 78.114 19.4846" class="color"/>
<path d="M85.4602 19.4846C84.2709 19.4846 82.8017 20.4641 82.067 21.6185V19.6945H79.8632V31.0634H82.067V23.5424C82.6967 22.3881 84.3059 21.7584 85.845 21.7584V19.5546C85.7051 19.4846 85.5302 19.4846 85.4602 19.4846" class="color"/>
<path fill-rule="evenodd" clip-rule="evenodd" d="M68.3193 21.5135V19.6945V19.6595H70.5231V31.0285H68.3193V29.2094C67.5147 30.3288 66.0455 31.2383 64.0166 31.2383C60.6583 31.2383 58.4195 28.5448 58.4195 25.3615C58.4195 22.1782 60.9032 19.4846 64.0166 19.4846C65.9755 19.4846 67.4097 20.2892 68.3193 21.5135ZM60.4482 25.3615C60.4482 27.7052 62.2672 29.4193 64.3311 29.4193C66.7798 29.4193 68.4589 27.6003 68.4589 25.3615C68.4589 23.1227 66.7798 21.3036 64.3311 21.3036C62.1622 21.3036 60.4482 23.1227 60.4482 25.3615Z" class="color"/>
<path fill-rule="evenodd" clip-rule="evenodd" d="M96.3039 21.5135V19.6945V19.6595H98.5077V31.0285H96.3039V29.2094C95.4993 30.3288 94.0301 31.2383 92.0012 31.2383C88.643 31.2383 86.4042 28.5448 86.4042 25.3615C86.4042 22.1782 88.8878 19.4846 92.0012 19.4846C93.9601 19.4846 95.3944 20.2892 96.3039 21.5135ZM88.433 25.3615C88.433 27.7052 90.252 29.4193 92.3159 29.4193C94.7646 29.4193 96.4437 27.6003 96.4437 25.3615C96.4437 23.1227 94.7646 21.3036 92.3159 21.3036C90.1471 21.3036 88.433 23.1227 88.433 25.3615Z" class="color"/>
<path fill-rule="evenodd" clip-rule="evenodd" d="M45.266 31.0631V15.8463H47.4699V21.5482C48.3794 20.3239 49.8136 19.5193 51.7726 19.5193C54.9209 19.5193 57.3696 22.2129 57.3696 25.3962C57.3696 28.5795 55.1308 31.273 51.7726 31.273C49.7437 31.273 48.2744 30.3635 47.4699 29.2441V31.0631H45.266ZM51.4237 21.3036C48.975 21.3036 47.2959 23.1227 47.2959 25.3615C47.2959 27.6353 48.975 29.4193 51.4237 29.4193C53.5226 29.4193 55.3066 27.7052 55.3066 25.3615C55.3066 23.1227 53.5925 21.3036 51.4237 21.3036Z" class="color"/>
<path fill-rule="evenodd" clip-rule="evenodd" d="M118.552 19.4846C121.595 19.4846 124.219 21.9333 124.254 25.2215C124.254 25.4835 124.221 25.7292 124.189 25.9698C124.174 26.0826 124.16 26.1943 124.149 26.306H114.809C115.228 28.3699 116.977 29.4193 118.517 29.4193C120.406 29.4193 121.35 28.3699 121.7 27.8102H124.044C122.819 30.3638 120.441 31.2733 118.517 31.2733C115.053 31.2733 112.675 28.5448 112.675 25.3615C112.675 22.0033 115.298 19.4846 118.552 19.4846ZM122.191 24.5919C121.981 22.9128 120.442 21.3736 118.483 21.3736C116.664 21.3736 114.985 22.7729 114.81 24.5919H122.191Z" class="color"/>
<path fill-rule="evenodd" clip-rule="evenodd" d="M109.491 21.5135V19.7295H111.66V29.3843C111.66 34.0718 108.897 35.7859 105.644 35.7859C102.88 35.7859 100.816 34.1768 100.151 32.4627H102.845C103.195 33.1273 104.349 33.9319 105.818 33.9319C107.672 33.9319 109.526 32.7425 109.526 30.014V29.2094C108.512 30.4338 106.938 31.1684 105.294 31.1684C102.18 31.1684 99.6267 28.4748 99.6267 25.3265C99.6267 22.1782 102.145 19.4846 105.294 19.4846C106.903 19.4846 108.442 20.1493 109.491 21.5135ZM101.656 25.3265C101.656 27.4254 103.44 29.3144 105.643 29.3144C107.847 29.3144 109.666 27.4603 109.631 25.3265C109.631 23.2276 107.847 21.3386 105.643 21.3386C103.44 21.3386 101.656 23.1926 101.656 25.3265Z" class="color"/>
<rect x="0.279297" y="0.139935" width="5.00945" height="1.91008" class="color"/>
<rect x="0.279297" y="7.81623" width="5.00945" height="1.91008" class="color"/>
<rect x="0.279297" y="15.4926" width="5.00945" height="1.91008" class="color"/>
<rect x="0.279297" y="23.169" width="5.00945" height="1.91008" class="color"/>
<rect x="0.279297" y="30.8452" width="5.00945" height="1.91008" class="color"/>
<rect x="0.279297" y="38.5577" width="5.00945" height="1.91008" class="color"/>
<rect x="0.279297" y="46.234" width="5.00945" height="1.91008" class="color"/>
<rect x="5.28933" y="3.99613" width="5.00945" height="1.91008" class="color"/>
<rect x="5.28933" y="19.3487" width="5.00945" height="1.91008" class="color"/>
<rect x="5.28933" y="27.0252" width="5.00945" height="1.91008" class="color"/>
<rect x="5.28933" y="34.7015" width="5.00945" height="1.91008" class="color"/>
<rect x="5.28933" y="42.3778" width="5.00945" height="1.91008" class="color"/>
<rect x="10.2974" y="0.139893" width="5.00945" height="1.91008" class="color"/>
<rect x="10.2974" y="7.81623" width="5.00945" height="1.91008" class="color"/>
<rect x="10.2974" y="15.4926" width="5.00945" height="1.91008" class="color"/>
<rect x="10.2974" y="23.169" width="5.00945" height="1.91008" class="color"/>
<rect x="10.2974" y="30.8452" width="5.00945" height="1.91008" class="color"/>
<rect x="10.2974" y="38.5577" width="5.00945" height="1.91008" class="color"/>
<rect x="10.2974" y="46.234" width="5.00945" height="1.91008" class="color"/>
<rect x="15.3074" y="3.99613" width="5.00945" height="1.91008" class="color"/>
<rect x="15.3074" y="19.3487" width="5.00945" height="1.91008" class="color"/>
<rect x="15.3074" y="27.0252" width="5.00945" height="1.91008" class="color"/>
<rect x="15.3074" y="34.7015" width="5.00945" height="1.91008" class="color"/>
<rect x="15.3074" y="42.3778" width="5.00945" height="1.91008" class="color"/>
<rect x="20.2806" y="0.139893" width="5.00945" height="1.91008" class="color"/>
<rect x="20.2806" y="7.81623" width="5.00945" height="1.91008" class="color"/>
<rect x="20.2806" y="15.4926" width="5.00945" height="1.91008" class="color"/>
<rect x="20.2806" y="23.169" width="5.00945" height="1.91008" class="color"/>
<rect x="20.2806" y="30.8452" width="5.00945" height="1.91008" class="color"/>
<rect x="20.2806" y="38.5577" width="5.00945" height="1.91008" class="color"/>
<rect x="20.2806" y="46.234" width="5.00945" height="1.91008" class="color"/>
<rect x="25.2906" y="3.99613" width="5.00945" height="1.91008" class="color"/>
<rect x="5.28933" y="11.6725" width="5.00945" height="1.91008" class="color"/>
<rect x="15.3074" y="11.6725" width="5.00945" height="1.91008" class="color"/>
<rect x="25.2906" y="11.6725" width="5.00945" height="1.91008" class="color"/>
<rect x="25.2906" y="19.3487" width="5.00945" height="1.91008" class="color"/>
<rect x="25.2906" y="27.0252" width="5.00945" height="1.91008" class="color"/>
<rect x="25.2906" y="34.7015" width="5.00945" height="1.91008" class="color"/>
<rect x="25.2906" y="42.3778" width="5.00945" height="1.91008" class="color"/>
<rect x="30.3007" y="7.81623" width="5.00945" height="1.91008" class="color"/>
<rect x="30.3007" y="15.4926" width="5.00945" height="1.91008" class="color"/>
<rect x="30.3007" y="30.8452" width="5.00945" height="1.91008" class="color"/>
<rect x="30.3007" y="38.5577" width="5.00945" height="1.91008" class="color"/>
</svg>
